<svg enable-background="new 0 0 100 100" viewBox="0 0 100 100" xmlns="http://www.w3.org/2000/svg"><path d="m22.9164295 50.8273621c.5069275-4.3399658.8172913-8.6798096 1.1445007-13.0196533l.3996887-6.5098877c.0340271-.5421143.0583191-1.0498047.1231995-1.7640381.0631714-.6628418.0949097-1.3253174.2420959-1.9769287.2198181-1.3092041.5788269-2.5933838 1.0568542-3.8222656.9605408-2.4591064 2.3837585-4.7080078 4.1480103-6.6141357 1.7722778-1.9014893 3.9101582-3.4420166 6.2550373-4.5112305 2.3363953-1.0827637 4.8759155-1.7252197 7.4309082-1.8383789 1.3651123-.0732422 2.3164368-.0112305 3.4341736-.0056152l3.2549133.0446777 3.2548828.0076904c1.1168213.0020752 2.0717468-.0528564 3.429657.0274658 2.5432129.1066895 5.0888367.7058105 7.4225731 1.7904053 4.6950684 2.1018066 8.5948486 6.0948486 10.5498352 11.0529785.4908142 1.234375.8624268 2.5263672 1.0939331 3.845459.1530762.6564941.1904602 1.3242188.2590027 1.993042.0740051.7227783.0858154 1.2287598.1135864 1.770874.0942078 2.1699219.2306213 4.3399658.2847595 6.5098877.0604248 2.1699219.1637573 4.3398438.1872253 6.5097656l.0440063 3.2548828.0120239 1.6275635c-.1780701.5424805.7149353 1.0849609-1.5764465 1.6274414h-6c-2.2913818-.5424805-1.3983765-1.0849609-1.5764465-1.6274414l.0120239-1.6275635.0440063-3.2548828c.0234375-2.1699219.1268005-4.3398438.1871948-6.5097656.0541687-2.1699219.1905823-4.3399658.28479-6.5098877.027771-.5427246.055603-1.1221924.052063-1.4824219.0012817-.4134521.0454712-.8355713-.0136719-1.2467041-.04422-.8321533-.1808777-1.6625977-.3989563-2.475708-.4323425-1.62854-1.2059326-3.1929932-2.2677917-4.5682373-1.0795593-1.3575439-2.4356346-2.5267334-3.9876671-3.3721924-1.5618896-.8222656-3.2925415-1.3422852-5.0780945-1.493042-.8079834-.0793457-2.0249329-.0584717-3.0776062-.0749512l-3.2548828.0076904-3.2549133.0446777c-1.0517578.0241699-2.2722778.010376-3.0730896.0968018-1.7737732.144165-3.5105591.6209717-5.0697632 1.4451904-3.0962219 1.6644287-5.5270996 4.5603027-6.4022522 7.868042-.2308655.8184814-.3800964 1.6567383-.4360657 2.4987793-.0650024.4160156-.0264587.8433838-.0305481 1.2628174-.0126648.3687744.0276489.9465332.061676 1.4892578l.3996887 6.5098877c.32724 4.3398438.6375732 8.6796875 1.1445312 13.0196533h-10.8286453z" fill="#293b44"/><path d="m24.9012775 50.8273621c.4697781-4.3399658.7573986-8.6798096 1.0606289-13.0196533l.3703976-6.5098877c.0315323-.5421143.0540447-1.0498047.1141701-1.7640381.0585423-.6628418.0879555-1.3253174.2243557-1.9769287.2037086-1.3092041.5364075-2.5933838.9794025-3.8222656.8901501-2.4591064 2.2090683-4.7080078 3.8440304-6.6141357 1.6423988-1.9014893 3.6236038-3.4420166 5.7966423-4.5112305 2.1651764-1.0827637 4.5185928-1.7252197 6.8863449-1.8383789 1.2650719-.0732422 2.1466827-.0112305 3.1825066-.0056152l3.0163803.0446777 3.0163536.0076904c1.034977.0020752 1.9199219-.0528564 3.1783218.0274658 2.3568344.1066895 4.7159081.7058105 6.8786201 1.7904053 4.3509979 2.1018066 7.9649887 6.0948486 9.7767105 11.0529785.4548416 1.234375.7992249 2.5263672 1.0137634 3.845459.141861.6564941.1764984 1.3242188.2400208 1.993042.0685806.7227783.0795288 1.2287598.1052628 1.770874.0873032 2.1699219.2137222 4.3399658.2638931 6.5098877.0559921 2.1699219.1517563 4.3398438.1735001 6.5097656l.0407867 3.2548828.0111389 1.6275635c-.1650162.5424805.6625443 1.0849609-1.4609146 1.6274414h-5.5603027c-2.1234589-.5424805-1.2958984-1.0849609-1.4609146-1.6274414l.0111389-1.6275635.0407791-3.2548828c.0217209-2.1699219.1175079-4.3398438.1734772-6.5097656.0502014-2.1699219.1766205-4.3399658.2639236-6.5098877.0257339-.5427246.0515289-1.1221924.0482483-1.4824219.0011826-.4134521.0421371-.8355713-.0126724-1.2467041-.0409775-.8321533-.1676254-1.6625977-.3697205-2.475708-.4006577-1.62854-1.1175537-3.1929932-2.1016006-4.5682373-1.0004425-1.3575439-2.2571449-2.5267334-3.6954384-3.3721924-1.4474297-.8222656-3.0512505-1.3422852-4.7059517-1.493042-.7487717-.0793457-1.8765411-.0584717-2.8520699-.0749512l-3.0163536.0076904-3.0163803.0446777c-.9746819.0241699-2.1057587.010376-2.8478813.0968018-1.6437874.144165-3.2532959.6209717-4.6982346 1.4451904-2.8693199 1.6644287-5.1220551 4.5603027-5.9330711 7.868042-.2139473.8184814-.3522415 1.6567383-.40411 2.4987793-.0602379.4160156-.0245209.8433838-.0283089 1.2628174-.0117378.3687744.0256233.9465332.0571556 1.4892578l.3703995 6.5098877c.303257 4.3398438.590847 8.6796875 1.0606537 13.0196533h-10.0350818z" fill="#344d5b"/><path d="m86.7611465 52.8573914c-.4962158-11.276123-9.8615112-20.1257324-21.1485596-20.1257324h-31.0914916c-11.2018433 0-20.4300537 8.7297363-21.1390381 19.9091797-.3533325 5.5715332-.3533325 11.1430664 0 16.7147217.7089844 11.1793213 9.9371948 19.9090576 21.1390381 19.9090576h30.8270874c11.1049805 0 20.3114624-8.5869141 21.1209106-19.6624756.4226074-5.7823487.5286255-11.3692628.2920532-16.744751z" fill="#344d5b"/><path d="m80.7016296 50.4128952c-.4042587-6.8284264-8.0340576-12.1874428-17.2294807-12.1874428h-25.329876c-9.1260109 0-16.6441269 5.2864227-17.2217274 12.0563087-.2878571 3.3739243-.2878571 6.7478523 0 10.1218529.5776005 6.7698097 8.0957165 12.0562325 17.2217274 12.0562325h25.1144676c9.0471001 0 16.5475121-5.1999359 17.2069588-11.9069099.3442917-3.5015908.4306641-6.8848305.2379303-10.1400414z" fill="#ededed" opacity=".05"/><path d="m67.9257812 48.0006371c-.2318039-3.9154243-4.606739-6.9882889-9.8794022-6.9882889h-14.524166c-5.2328644 0-9.5437546 3.0312386-9.8749542 6.9130974-.1650543 1.9346123-.1650543 3.8692245 0 5.8038788.3311996 3.881813 4.6420898 6.9130516 9.8749542 6.9130516h14.4006538c5.1876106 0 9.4883499-2.9816475 9.866478-6.8274307.1974182-2.0078164.2469482-3.9477692.1364364-5.8143082z" fill="#ededed" opacity=".05"/><path d="m86.7875748 53.6603699c-.0700073 1.9000244-.1799927 3.8200684-.3200073 5.7700195-.8099976 11.0800781-10.0100098 19.6600342-21.1199951 19.6600342h-30.8300172c-11.2000122 0-20.4299927-8.7299805-21.1400146-19.9100342-.0700073-1.0899658-.1199951-2.1799316-.1599731-3.2700195-.1799927 4.4799805-.1199951 8.9599609.1599731 13.4500732.710022 11.1700439 9.9400024 19.9000244 21.1400146 19.9000244h30.8300171c11.1099854 0 20.3099976-8.5800781 21.1199951-19.6600342.3999634-5.5.5199585-10.8199462.3200074-15.9400634z" fill="#293b44"/><g fill="#ededed"><path d="m35.1321106 66.6437225v-17.083889h2.2607574v8.472023l8.4836769-8.472023h3.064846l-7.1668434 6.9221191 7.4814873 10.1617699h-2.9832726l-6.0830765-8.6468277-2.7968177 2.7268982v5.9199295z"/><path d="m59.1381187 59.9430122v-2.0043831l7.2367668-.0116539v6.3394508c-1.1109619.8856583-2.2568817 1.5518417-3.4377556 1.998558-1.1808777.4467163-2.3928337.6700745-3.6358643.6700745-1.6780891 0-3.2027435-.359314-4.5739594-1.0779419s-2.4064293-1.7577209-3.1056328-3.1172867c-.6992035-1.3595619-1.0488052-2.8783913-1.0488052-4.5564804 0-1.6625519.3476601-3.2143974 1.0429802-4.6555328.6953201-1.4411392 1.6955681-2.5113106 3.0007515-3.2105141 1.3051796-.6992035 2.8084679-1.0488052 4.5098648-1.0488052 1.23526 0 2.352047.2000504 3.3503532.6001511.9983101.4000969 1.7810326.9575195 2.3481636 1.6722603.567131.7147446.9983063 1.6470146 1.2935257 2.7968178l-2.0393448.5593643c-.2563744-.870121-.5749016-1.5537872-.9555779-2.0509987-.3806801-.4972115-.9245033-.8953705-1.6314774-1.1944733-.706974-.2991066-1.4916344-.448658-2.3539886-.448658-1.033268 0-1.9266968.1573219-2.6802826.471962-.7535858.3146439-1.3615036.7283401-1.8237572 1.2410889-.4622498.5127487-.8215637 1.0759964-1.0779381 1.689743-.4350624 1.0565758-.6525917 2.2024956-.6525917 3.4377556 0 1.5227089.2621994 2.796814.7866058 3.8223152.5244026 1.0255013 1.2877007 1.7868538 2.2898903 2.2840691 1.0021935.4972076 2.0665398.7458191 3.1930351.7458191.9788857 0 1.9344635-.1884003 2.8667374-.5651932.9322701-.3767929 1.6392441-.7788353 2.1209183-1.2061272v-3.1813812z"/></g></svg>